<svg xmlns="http://www.w3.org/2000/svg" width="24.1" height="27.738" viewBox="0 0 24.1 27.738">
    <defs>
        <style>
            .cls-1{fill:#fff}
        </style>
    </defs>
    <g id="Group_12924" data-name="Group 12924">
        <path id="Path_1194" d="M16.012 26.751a1.569 1.569 0 0 1-.862.605l-1.732.473a1.554 1.554 0 0 1-1.965-1.361L11.3 24.68a1.532 1.532 0 0 1 .271-1.03l.064-.092H5.459a.909.909 0 0 1 0-1.818h7.477l1.671-2.387H5.459a.909.909 0 0 1 0-1.819l10.435-.027 3.913-5.607V7.743A1.213 1.213 0 0 0 18.6 6.509h-3V8.88a2.014 2.014 0 0 1-2.032 2H7.545a1.988 1.988 0 0 1-2-2V6.509H2.514A1.233 1.233 0 0 0 1.28 7.743v21.2a1.259 1.259 0 0 0 1.234 1.264H18.6a1.239 1.239 0 0 0 1.21-1.264v-7.58zM5.459 13.329h10.195a.909.909 0 0 1 0 1.818H5.459a.909.909 0 0 1 0-1.818z" class="cls-1" data-name="Path 1194" transform="translate(-1.28 -2.469)"/>
        <path id="Path_1195" d="M10.9 7.223h6.019a.827.827 0 0 0 .826-.827V2.934a.827.827 0 0 0-.826-.827h-.907a2.119 2.119 0 0 0-4.237 0H10.9a.826.826 0 0 0-.826.827V6.4a.827.827 0 0 0 .826.823zm2.99-6.049a.944.944 0 0 1 .944.934h-1.89a.946.946 0 0 1 .946-.934z" class="cls-1" data-name="Path 1195" transform="translate(-4.613)"/>
        <path id="Path_1196" d="M33.254 11.824a.589.589 0 0 0-.243-.378L31.5 10.4a.584.584 0 0 0-.814.145l-8.622 12.521 2.466 1.72 8.627-12.525a.59.59 0 0 0 .097-.437z" class="cls-1" data-name="Path 1196" transform="translate(-9.163 -3.468)"/>
        <path id="Path_1197" d="M19.354 34.887l.155 1.8a.345.345 0 0 0 .146.256.356.356 0 0 0 .2.065.327.327 0 0 0 .091-.013l1.741-.477a.354.354 0 0 0 .194-.137l.654-.937-2.468-1.721-.654.937a.34.34 0 0 0-.059.227z" class="cls-1" data-name="Path 1197" transform="translate(-8.134 -12.789)"/>
    </g>
</svg>
