<svg xmlns="http://www.w3.org/2000/svg" width="11.721" height="11.721" viewBox="0 0 11.721 11.721">
    <path d="M10.347.916H9.8V0h-.918v.916H2.839V0h-.916v.916h-.549A1.375 1.375 0 0 0 0 2.289v8.058a1.375 1.375 0 0 0 1.374 1.374h8.974a1.375 1.375 0 0 0 1.374-1.374V2.289A1.375 1.375 0 0 0 10.347.916zm.458 9.432a.458.458 0 0 1-.458.458H1.374a.458.458 0 0 1-.458-.458V4.3h9.889zm0-6.959H.916v-1.1a.458.458 0 0 1 .458-.458h.549v.916h.916v-.916h6.043v.916H9.8v-.916h.549a.458.458 0 0 1 .458.458z" data-name="Path 2644"/>
    <path d="M2.312 5.618h1.4v1.4h-1.4z" data-name="Rectangle 3820"/>
    <path d="M5.159 5.618h1.4v1.4h-1.4z" data-name="Rectangle 3821"/>
    <path d="M8.005 5.618h1.4v1.4h-1.4z" data-name="Rectangle 3822"/>
    <path d="M2.312 8.278h1.4v1.4h-1.4z" data-name="Rectangle 3825"/>
    <path d="M5.159 8.278h1.4v1.4h-1.4z" data-name="Rectangle 3826"/>
    <path d="M8.005 8.278h1.4v1.4h-1.4z" data-name="Rectangle 3827"/>
</svg>
