<svg xmlns="http://www.w3.org/2000/svg" id="heart" width="14.943" height="13.138" viewBox="0 0 14.943 13.138">
    <defs>
        <style>
            .cls-1{fill:#357ced}
        </style>
    </defs>
    <path id="Path_2653" d="M13.737 29.721a4.138 4.138 0 0 0-5.851 0l-.409.409-.415-.415a4.133 4.133 0 1 0-5.845 5.845l5.949 5.95a.424.424 0 0 0 .6 0l5.962-5.94a4.146 4.146 0 0 0 .006-5.855zm-.608 5.249l-5.662 5.639-5.648-5.648a3.28 3.28 0 1 1 4.638-4.638l.716.716a.426.426 0 0 0 .605 0l.71-.71a3.282 3.282 0 0 1 4.641 4.641z" class="cls-1" data-name="Path 2653" transform="translate(0 -28.501)"/>
</svg>
