<svg xmlns="http://www.w3.org/2000/svg" width="17.872" height="12.396" viewBox="0 0 17.872 12.396">
    <defs>
        <style>
            .cls-1{fill:#f7000d}
        </style>
    </defs>
    <g id="menu_1_" data-name="menu (1)" transform="translate(0 -78.439)">
        <g id="Group_12343" data-name="Group 12343" transform="translate(0 83.915)">
            <g id="Group_12342" data-name="Group 12342">
                <path id="Path_1008" d="M17.15 235.318H.722a.722.722 0 1 0 0 1.444H17.15a.722.722 0 1 0 0-1.444z" class="cls-1" data-name="Path 1008" transform="translate(0 -235.318)"/>
            </g>
        </g>
        <g id="Group_12345" data-name="Group 12345" transform="translate(0 78.439)">
            <g id="Group_12344" data-name="Group 12344">
                <path id="Path_1009" d="M17.15 78.439H.722a.722.722 0 0 0 0 1.444H17.15a.722.722 0 0 0 0-1.444z" class="cls-1" data-name="Path 1009" transform="translate(0 -78.439)"/>
            </g>
        </g>
        <g id="Group_12347" data-name="Group 12347" transform="translate(0 89.391)">
            <g id="Group_12346" data-name="Group 12346">
                <path id="Path_1010" d="M17.15 392.2H.722a.722.722 0 0 0 0 1.444H17.15a.722.722 0 0 0 0-1.444z" class="cls-1" data-name="Path 1010" transform="translate(0 -392.197)"/>
            </g>
        </g>
    </g>
</svg>
