<svg xmlns="http://www.w3.org/2000/svg" id="shopping-cart" width="17.989" height="15.811" viewBox="0 0 17.989 15.811">
    <defs>
        <style>
            .cls-1{fill:#f7000d}
        </style>
    </defs>
    <path id="Path_2700" d="M5.8 10.541h9.558a.527.527 0 0 0 .507-.382l2.104-7.379a.527.527 0 0 0-.507-.672H4.581L4.2.413A.527.527 0 0 0 3.689 0H.527a.527.527 0 0 0 0 1.054h2.74l1.9 8.563a1.581 1.581 0 0 0 .633 3.032h9.557a.527.527 0 0 0 0-1.054H5.8a.527.527 0 0 1 0-1.054zm10.964-7.379l-1.807 6.325H6.22L4.815 3.162zm0 0" class="cls-1" data-name="Path 2700"/>
    <path id="Path_2701" d="M150 361.581a1.581 1.581 0 1 0 1.581-1.581 1.583 1.583 0 0 0-1.581 1.581zm1.581-.527a.527.527 0 1 1-.527.527.528.528 0 0 1 .527-.527zm0 0" class="cls-1" data-name="Path 2701" transform="translate(-144.73 -347.351)"/>
    <path id="Path_2702" d="M362 361.581a1.581 1.581 0 1 0 1.581-1.581 1.583 1.583 0 0 0-1.581 1.581zm1.581-.527a.527.527 0 1 1-.527.527.528.528 0 0 1 .527-.527zm0 0" class="cls-1" data-name="Path 2702" transform="translate(-349.281 -347.351)"/>
</svg>
