<svg xmlns="http://www.w3.org/2000/svg" width="20" height="20" viewBox="0 0 20 20">
    <defs>
        <style>
            .cls-1{stroke:#000;stroke-width:.2px}.cls-2{fill:none}
        </style>
    </defs>
    <g id="Group_14147" data-name="Group 14147" transform="translate(-52 -299)">
        <path id="Path_2482" d="M41.029 8.931a.874.874 0 0 0-.484-1.49l-2.9-.421a.175.175 0 0 1-.132-.1L36.217 4.3a.874.874 0 0 0-1.567 0l-1.3 2.627a.175.175 0 0 1-.132.1l-2.9.421a.874.874 0 0 0-.484 1.49l2.1 2.045a.175.175 0 0 1 .05.155l-.5 2.887a.874.874 0 0 0 1.268.921l2.593-1.363a.175.175 0 0 1 .163 0l2.593 1.363a.874.874 0 0 0 1.268-.921l-.5-2.887a.175.175 0 0 1 .05-.155zm-2.837 2.318l.5 2.887a.175.175 0 0 1-.254.184l-2.593-1.363a.874.874 0 0 0-.813 0l-2.598 1.363a.175.175 0 0 1-.254-.184l.5-2.887a.873.873 0 0 0-.251-.773l-2.1-2.045a.175.175 0 0 1 .1-.3l2.9-.421a.874.874 0 0 0 .658-.478l1.3-2.627a.175.175 0 0 1 .313 0l1.3 2.627a.873.873 0 0 0 .658.478l2.9.421a.175.175 0 0 1 .1.3l-2.1 2.045a.873.873 0 0 0-.266.773z" class="cls-1" data-name="Path 2482" transform="translate(26.926 299.69)"/>
        <path id="Rectangle_4522" d="M0 0h20v20H0z" class="cls-2" data-name="Rectangle 4522" transform="translate(52 299)"/>
    </g>
</svg>
