<svg xmlns="http://www.w3.org/2000/svg" width="13.531" height="10.795" viewBox="0 0 13.531 10.795">
    <defs>
        <style>
            .cls-1{fill:#fff}
        </style>
    </defs>
    <g id="tags">
        <g id="Group_13267" data-name="Group 13267">
            <path id="Path_2654" d="M0 61.2a.913.913 0 0 1 .264-.648l5.095-5.087a2.206 2.206 0 0 1 .727-.46 2.2 2.2 0 0 1 .834-.189h2.963a.925.925 0 0 1 .912.912V58.7a2.2 2.2 0 0 1-.189.834 2.126 2.126 0 0 1-.46.72l-5.095 5.1a.873.873 0 0 1-.641.264.913.913 0 0 1-.648-.264l-3.5-3.506A.873.873 0 0 1 0 61.2zm7.87-3.459a.912.912 0 1 0-.27-.641.879.879 0 0 0 .27.644z" class="cls-1" data-name="Path 2654" transform="translate(2.736 -54.819)"/>
            <path id="Path_2655" d="M201.26 60.559l5.095-5.087a2.525 2.525 0 0 1 1.56-.648h1.6a2.525 2.525 0 0 0-1.56.648l-5.095 5.087a.912.912 0 0 0-.264.648.873.873 0 0 0 .264.641l3.34 3.352a2.033 2.033 0 0 1-.378.321.8.8 0 0 1-.42.1.912.912 0 0 1-.648-.264l-3.5-3.506a.873.873 0 0 1-.264-.641.913.913 0 0 1 .27-.651z" class="cls-1" data-name="Path 2655" transform="translate(-200.996 -54.823)"/>
        </g>
    </g>
</svg>
