<svg xmlns="http://www.w3.org/2000/svg" width="12.587" height="12.587" viewBox="0 0 12.587 12.587">
    <path d="M.447 6.739h.978a4.886 4.886 0 0 0 4.424 4.424v.978a.446.446 0 1 0 .891 0v-.978a4.886 4.886 0 0 0 4.424-4.424h.978a.446.446 0 1 0 0-.891h-.978A4.886 4.886 0 0 0 6.74 1.424V.446a.446.446 0 0 0-.891 0v.978a4.886 4.886 0 0 0-4.424 4.424H.447a.441.441 0 0 0-.446.446.448.448 0 0 0 .446.446zm3.663-.891H2.316a4 4 0 0 1 3.533-3.533v1.793a.446.446 0 1 0 .891 0V2.315a4 4 0 0 1 3.533 3.533H8.479a.446.446 0 1 0 0 .891h1.793a4 4 0 0 1-3.533 3.533V8.478a.446.446 0 1 0-.891 0v1.793a4 4 0 0 1-3.533-3.533h1.793a.448.448 0 0 0 .446-.446.455.455 0 0 0-.444-.444z" data-name="Path 2651"/>
</svg>
